<svg width="64" height="64" viewBox="-5 -5 64 64" fill="none" xmlns="http://www.w3.org/2000/svg">
  <path d="M21.5 1C20.123 1.015 18.793297 1.7223281 18.029297 2.9863281L17.763672 3.4257812C17.385672 4.0497813 16.725094 4.4293594 15.996094 4.4433594L15.484375 4.4550781C13.270375 4.5010781 11.501078 6.269375 11.455078 8.484375L11.445312 8.9960938C11.430312 9.7240937 11.048781 10.385672 10.425781 10.763672L9.9863281 11.027344C8.0923281 12.173344 7.4456719 14.593203 8.5136719 16.533203L8.7597656 16.980469C9.1107656 17.619469 9.1107656 18.380531 8.7597656 19.019531L8.5136719 19.46875C7.4466719 21.40875 8.0942813 23.826656 9.9882812 24.972656L10.425781 25.238281C11.049781 25.616281 11.430312 26.275906 11.445312 27.003906L11.455078 27.515625C11.501078 29.729625 13.270375 31.500875 15.484375 31.546875L15.996094 31.556641C16.724094 31.571641 17.385672 31.951172 17.763672 32.576172L18.027344 33.013672C18.800344 34.290672 20.151922 35 21.544922 35C22.217922 35 22.89925 34.834328 23.53125 34.486328L23.980469 34.240234C24.618469 33.888234 25.382484 33.888234 26.021484 34.240234L26.46875 34.486328C28.40875 35.552328 30.827656 34.906672 31.972656 33.013672L32.238281 32.574219C32.616281 31.950219 33.276859 31.570641 34.005859 31.556641L34.515625 31.544922C36.729625 31.498922 38.500875 29.730625 38.546875 27.515625L38.556641 27.003906C38.571641 26.275906 38.951219 25.614328 39.574219 25.236328L40.013672 24.972656C41.905672 23.826656 42.553328 21.40875 41.486328 19.46875L41.240234 19.019531C40.889234 18.380531 40.889234 17.619469 41.240234 16.980469L41.486328 16.533203C42.553328 14.593203 41.905719 12.173344 40.011719 11.027344L39.574219 10.763672C38.950219 10.385672 38.569688 9.7240938 38.554688 8.9960938L38.544922 8.484375C38.498922 6.270375 36.729625 4.5010781 34.515625 4.4550781L34.003906 4.4433594C33.275906 4.4283594 32.614328 4.0488281 32.236328 3.4238281L31.972656 2.9882812C31.207656 1.7242813 29.877 1.015 28.5 1C27.813 0.992 27.11375 1.1586719 26.46875 1.5136719L26.019531 1.7597656C25.381531 2.1117656 24.617516 2.1117656 23.978516 1.7597656L23.53125 1.5136719C22.88625 1.1576719 22.187 0.993 21.5 1 z M 32.283203 11.085938L33.96875 12.164062L24.457031 27.03125L16.080078 19.492188L17.419922 18.007812L24.042969 23.96875L32.283203 11.085938 z M 36.613281 33.142578C35.972281 33.386578 35.281641 33.531875 34.556641 33.546875L34.044922 33.556641C34.000922 33.557641 33.970266 33.575281 33.947266 33.613281L33.681641 34.050781C32.677641 35.710781 30.995563 36.762937 29.101562 36.960938L28.814453 37.619141L26.121094 43.773438L28.144531 48.400391C28.284531 48.721391 28.582688 48.944234 28.929688 48.990234C28.975687 48.996234 29.0185 49 29.0625 49C29.3635 49 29.65275 48.863 29.84375 48.625L33.544922 44L40.064453 44C40.405453 44 40.72325 43.826062 40.90625 43.539062C41.08925 43.252063 41.113703 42.890078 40.970703 42.580078L36.613281 33.142578 z M 13.439453 33.160156L9.09375 42.580078C8.95075 42.890078 8.9742031 43.250109 9.1582031 43.537109C9.3402031 43.825109 9.659 44 10 44L16.519531 44L20.220703 48.625C20.410703 48.863 20.699 49 21 49C21.043 49 21.086859 48.996234 21.130859 48.990234C21.477859 48.944234 21.776016 48.721391 21.916016 48.400391L26.982422 36.818359C26.470422 36.690359 25.972812 36.499141 25.507812 36.244141L25.054688 35.996094C25.035688 35.985094 25.016047 35.980469 24.998047 35.980469C24.981047 35.980469 24.966312 35.985094 24.945312 35.996094L24.496094 36.242188C23.592094 36.739187 22.570922 37.003906 21.544922 37.003906C19.388922 37.003906 17.435359 35.899734 16.318359 34.052734L16.052734 33.613281C16.029734 33.575281 16.000078 33.557641 15.955078 33.556641L15.443359 33.546875C14.738359 33.531875 14.065453 33.392156 13.439453 33.160156 z" fill="white" />
</svg>