<svg width="64" height="64" viewBox="-5 -5 64 64" fill="none" xmlns="http://www.w3.org/2000/svg">
  <path d="M3 7C2.448 7 2 7.448 2 8L2 12C2 12.552 2.448 13 3 13L7 13C7.552 13 8 12.552 8 12L8 8C8 7.448 7.552 7 7 7L3 7 z M 11 9 A 1.0001 1.0001 0 1 0 11 11L47 11 A 1.0001 1.0001 0 1 0 47 9L11 9 z M 3 17C2.448 17 2 17.448 2 18L2 22C2 22.552 2.448 23 3 23L7 23C7.552 23 8 22.552 8 22L8 18C8 17.448 7.552 17 7 17L3 17 z M 11 19 A 1.0001 1.0001 0 1 0 11 21L47 21 A 1.0001 1.0001 0 1 0 47 19L11 19 z M 36 26C30.488997 26 26 30.488997 26 36C26 41.511003 30.488997 46 36 46C38.396508 46 40.597385 45.148986 42.322266 43.736328L48.292969 49.707031L49.707031 48.292969L43.736328 42.322266C45.148986 40.597385 46 38.396508 46 36C46 30.488997 41.511003 26 36 26 z M 3 27C2.448 27 2 27.448 2 28L2 32C2 32.552 2.448 33 3 33L7 33C7.552 33 8 32.552 8 32L8 28C8 27.448 7.552 27 7 27L3 27 z M 36 28C40.430123 28 44 31.569877 44 36C44 40.430123 40.430123 44 36 44C31.569877 44 28 40.430123 28 36C28 31.569877 31.569877 28 36 28 z M 11 29C10.448 29 10 29.448 10 30C10 30.552 10.448 31 11 31L25.101562 31C25.426562 30.293 25.817578 29.625 26.267578 29L11 29 z M 3 37C2.448 37 2 37.448 2 38L2 42C2 42.552 2.448 43 3 43L7 43C7.552 43 8 42.552 8 42L8 38C8 37.448 7.552 37 7 37L3 37 z M 11 39C10.448 39 10 39.448 10 40C10 40.552 10.448 41 11 41L25.101562 41C24.807562 40.361 24.571578 39.693 24.392578 39L11 39 z" fill="white" />
</svg>