<?xml version="1.0" encoding="UTF-8"?>
<!DOCTYPE svg PUBLIC "-//W3C//DTD SVG 1.1//EN" "http://www.w3.org/Graphics/SVG/1.1/DTD/svg11.dtd">
<!-- Creator: CorelDRAW X6 -->
<svg xmlns="http://www.w3.org/2000/svg" xml:space="preserve" width="100%" height="100%" version="1.1" style="shape-rendering:geometricPrecision; text-rendering:geometricPrecision; image-rendering:optimizeQuality; fill-rule:evenodd; clip-rule:evenodd"
viewBox="0 0 10309 3400"
 xmlns:xlink="http://www.w3.org/1999/xlink">
 <defs>
  <style type="text/css">
   <![CDATA[
    .fil1 {fill:#F24646}
    .fil0 {fill:white;fill-rule:nonzero}
   ]]>
  </style>
 </defs>
 <g id="Layer_x0020_1">
  <metadata id="CorelCorpID_0Corel-Layer"/>
  <g id="_450274088">
   <polygon class="fil0" points="745,815 756,815 886,524 1041,189 1382,189 1382,1417 1043,1417 1043,918 1036,918 950,1115 891,1260 618,1260 558,1113 473,912 468,912 468,1417 128,1417 128,189 458,189 600,500 "/>
   <path id="1" class="fil0" d="M2006 514c76,0 145,14 206,41 61,28 108,66 141,116 55,78 82,179 79,305 0,111 -25,204 -74,280 -76,115 -202,173 -376,173 -168,0 -284,-48 -347,-143 -56,-81 -83,-186 -81,-316 2,-91 19,-172 51,-243 31,-66 82,-118 153,-156 72,-38 154,-57 247,-57zm-16 642c33,0 59,-13 78,-39 19,-27 28,-74 28,-141 0,-66 -8,-112 -25,-139 -19,-29 -45,-44 -78,-44 -35,0 -62,17 -81,51 -16,29 -25,75 -25,136 0,68 10,115 30,141 18,24 42,35 72,35z"/>
   <path id="2" class="fil0" d="M3144 766l-152 0 0 303c0,34 6,56 19,65 13,9 35,14 67,14l67 0 0 268 -194 0c-102,0 -178,-26 -226,-78 -48,-52 -72,-131 -72,-238l0 -335 -99 0 0 -228 104 0 0 -238 330 0 0 238 155 0 0 228z"/>
   <path id="3" class="fil0" d="M3744 514c76,0 145,14 206,41 61,28 108,66 141,116 55,78 82,179 79,305 0,111 -25,204 -74,280 -76,115 -202,173 -376,173 -168,0 -284,-48 -347,-143 -56,-81 -83,-186 -81,-316 2,-91 19,-172 51,-243 31,-66 82,-118 153,-156 72,-38 154,-57 247,-57zm-16 642c33,0 59,-13 78,-39 19,-27 28,-74 28,-141 0,-66 -8,-112 -25,-139 -19,-29 -45,-44 -78,-44 -35,0 -62,17 -81,51 -16,29 -25,75 -25,136 0,68 10,115 30,141 18,24 42,35 72,35z"/>
   <path id="4" class="fil0" d="M4680 639l7 2c54,-83 131,-125 229,-125 52,0 105,11 161,34l-85 323c-56,-22 -110,-34 -161,-34 -98,0 -146,50 -146,150l0 429 -339 0 0 -878 333 0 0 101z"/>
   <path id="5" class="fil0" d="M5954 1136c0,93 -37,165 -111,215 -74,51 -172,76 -293,76 -181,0 -327,-45 -437,-134l136 -201c89,64 181,95 275,95 65,0 97,-14 97,-41 0,-14 -6,-24 -18,-28 -12,-5 -31,-9 -58,-14 -40,-6 -75,-12 -106,-19 -31,-7 -63,-18 -98,-33 -35,-15 -63,-32 -86,-52 -22,-20 -41,-46 -56,-79 -15,-33 -23,-71 -23,-113 0,-94 35,-167 106,-218 71,-51 158,-77 261,-77 159,0 289,36 392,109l-123 206c-83,-52 -167,-78 -250,-78 -45,0 -67,14 -67,42 0,28 46,51 139,67 103,20 183,50 238,89 55,39 83,101 83,186z"/>
   <path id="6" class="fil0" d="M6488 512c268,0 402,121 402,362l0 543 -332 0 0 -78 -7 0c-64,64 -143,95 -240,95 -74,0 -136,-21 -186,-63 -50,-42 -75,-107 -75,-197 0,-85 29,-152 87,-202 58,-50 144,-75 257,-75l161 0 0 -23c0,-55 -46,-83 -139,-83 -76,0 -143,21 -199,62l-120 -224c93,-79 223,-118 392,-118zm-106 630c0,44 24,65 71,65 28,0 52,-8 72,-23 20,-15 30,-36 30,-64l0 -41 -97 0c-25,0 -44,6 -56,19 -13,13 -19,27 -19,42z"/>
   <polygon id="7" class="fil0" points="7824,1417 7030,1417 7030,1191 7425,785 7054,785 7054,538 7824,538 7824,755 7430,1159 7824,1159 "/>
   <path id="8" class="fil0" d="M8384 512c268,0 402,121 402,362l0 543 -332 0 0 -78 -7 0c-64,64 -143,95 -240,95 -74,0 -136,-21 -186,-63 -50,-42 -75,-107 -75,-197 0,-85 29,-152 87,-202 58,-50 144,-75 257,-75l161 0 0 -23c0,-55 -46,-83 -139,-83 -76,0 -143,21 -199,62l-120 -224c93,-79 223,-118 392,-118zm-106 630c0,44 24,65 71,65 28,0 52,-8 72,-23 20,-15 30,-36 30,-64l0 -41 -97 0c-25,0 -44,6 -56,19 -13,13 -19,27 -19,42z"/>
   <path id="9" class="fil0" d="M9286 621l9 2c69,-72 146,-108 231,-108 201,0 302,108 302,325l0 577 -337 0 0 -474c0,-81 -32,-122 -95,-122 -33,0 -58,12 -76,37 -18,25 -26,55 -26,92l0 467 -339 0 0 -878 332 0 0 83z"/>
   <rect class="fil1" transform="matrix(0.54325 0.00185315 -0.109756 0.499997 6467.45 1657.46)" width="6354" height="3132"/>
   <path class="fil0" d="M6826 2284l0 258c0,24 -5,46 -15,66 -10,20 -23,37 -39,51 -16,14 -34,25 -55,33 -20,8 -41,12 -62,12 -21,0 -43,-4 -63,-12 -20,-8 -39,-19 -55,-33 -16,-14 -29,-31 -39,-51 -10,-20 -15,-42 -15,-66l0 -140 89 0 0 138c0,13 2,24 7,33 5,9 11,17 18,23 8,6 16,11 26,14 10,3 20,5 30,5 10,0 20,-2 30,-5 10,-3 19,-8 26,-14 8,-6 14,-14 19,-24 5,-9 7,-20 7,-33l0 -257 89 0zm-202 -90l64 64 -64 63 -63 -63 63 -64z"/>
   <path id="1" class="fil0" d="M6982 2117l0 311c0,13 0,26 -1,39 -1,13 -2,26 -5,39 -2,13 -6,25 -11,36 -5,12 -11,22 -19,30l-59 -33c3,-10 4,-21 5,-33 1,-12 1,-27 1,-44l0 -345 88 0z"/>
   <path id="2" class="fil0" d="M7232 2283c19,16 34,35 45,58 11,23 19,47 23,73 4,26 5,53 3,80 -2,27 -8,53 -17,78 -9,25 -20,48 -35,68 -15,21 -32,37 -52,50 -20,12 -43,20 -69,23 -25,3 -53,-2 -84,-13l0 -89c22,9 42,13 60,12 18,-1 33,-5 46,-12 13,-7 24,-18 33,-31 9,-13 16,-28 21,-45 5,-16 8,-34 9,-52 1,-18 0,-36 -3,-54 -3,-18 -8,-35 -14,-51 -6,-16 -15,-30 -25,-42l59 -55zm-100 -129l64 63 -64 64 -63 -64 63 -63z"/>
   <path id="3" class="fil0" d="M7373 2117l89 0 0 312c0,8 1,15 4,21 3,6 6,11 11,16 5,4 10,8 16,10 6,2 12,3 18,3l0 89c-19,0 -37,-4 -54,-11 -17,-7 -31,-17 -44,-29 -12,-12 -22,-27 -30,-44 -7,-17 -11,-35 -11,-54l0 -313z"/>
   <path id="4" class="fil0" d="M8020 2284l0 146c0,19 -4,37 -11,53 -7,17 -17,31 -29,44 -12,12 -27,22 -43,29 -17,7 -34,11 -53,11 -18,0 -35,-3 -51,-10 -16,-6 -30,-15 -42,-27 -14,12 -28,21 -43,27 -15,6 -32,9 -50,10 -17,0 -34,-3 -50,-9 -16,-6 -31,-15 -44,-27 -12,11 -27,20 -42,27 -16,6 -33,10 -51,10l0 -89c6,0 12,-1 18,-3 6,-2 11,-5 16,-10 5,-4 9,-9 11,-16 3,-6 4,-13 4,-21l0 -145 89 0 0 145c0,8 1,15 4,21 3,6 6,12 11,16 5,4 10,8 16,10 6,2 12,3 18,3 6,0 12,-1 18,-3 6,-2 11,-6 16,-10 5,-4 8,-10 11,-16 3,-6 4,-13 4,-21l0 -145 89 0 0 145c0,8 1,15 4,21 3,6 6,11 11,16 5,4 10,7 16,10 6,2 12,4 18,4 6,0 12,-2 18,-4 6,-2 11,-5 16,-10 5,-4 8,-9 11,-16 3,-6 4,-13 4,-21l0 -145 89 0z"/>
   <path id="5" class="fil0" d="M8255 2283c19,16 34,35 45,58 11,23 19,47 23,73 4,26 5,53 3,80 -2,27 -8,53 -17,78 -9,25 -20,48 -35,68 -15,21 -32,37 -52,50 -20,12 -43,20 -69,23 -25,3 -53,-2 -84,-13l0 -89c22,9 42,13 60,12 18,-1 33,-5 46,-12 13,-7 24,-18 33,-31 9,-13 16,-28 21,-45 5,-16 8,-34 9,-52 1,-18 0,-36 -3,-54 -3,-18 -8,-35 -14,-51 -6,-16 -15,-30 -25,-42l59 -55z"/>
   <path id="6" class="fil0" d="M8707 2568l-66 0c-7,30 -19,55 -35,75 -16,20 -35,35 -57,46 -22,11 -45,17 -71,19 -26,2 -52,-1 -79,-7l0 -89c14,6 29,10 45,12 16,2 31,1 46,-2 14,-3 27,-9 38,-18 11,-9 19,-21 24,-37 -10,2 -21,3 -33,2 -12,0 -25,-2 -38,-5 -13,-3 -25,-7 -38,-13 -12,-6 -23,-14 -33,-24 -10,-10 -17,-22 -23,-37 -6,-15 -9,-32 -9,-52l0 -77c0,-19 4,-37 11,-53 7,-17 17,-31 29,-44 13,-13 27,-22 44,-30 17,-7 35,-11 54,-11 19,0 37,4 53,11 17,7 31,17 44,30 13,13 22,27 30,44 7,17 11,35 11,53 0,21 0,39 0,52 0,13 0,24 0,33 0,8 0,15 0,20 0,5 0,9 -1,13l54 0 0 89zm-239 -204l0 66c0,8 1,15 4,21 3,6 6,12 11,16 5,4 10,8 16,10 6,2 12,4 18,4l49 0 0 -117c0,-9 -1,-17 -4,-24 -3,-6 -6,-12 -11,-16 -5,-4 -10,-7 -16,-9 -6,-2 -12,-3 -18,-2 -6,0 -12,2 -18,4 -6,2 -11,6 -16,10 -5,5 -8,10 -11,16 -3,6 -4,13 -4,21z"/>
   <path id="7" class="fil0" d="M8904 2430c0,19 -3,37 -11,53 -7,17 -17,31 -29,44 -12,13 -27,22 -44,30 -17,7 -35,11 -54,11l-60 0 0 -89 60 0c6,0 12,-1 18,-3 6,-2 11,-5 16,-10 5,-4 8,-9 11,-16 3,-6 4,-13 4,-21l0 -145 89 0 0 146zm-95 -269l53 -53 64 63 -64 64 -53 -53 -53 53 -64 -64 64 -63 53 53z"/>
   <path id="8" class="fil0" d="M9283 2568l-66 0c-7,30 -19,55 -35,75 -16,20 -35,35 -57,46 -22,11 -45,17 -71,19 -26,2 -52,-1 -79,-7l0 -89c14,6 29,10 45,12 16,2 31,1 46,-2 14,-3 27,-9 38,-18 11,-9 19,-21 24,-37 -10,2 -21,3 -33,2 -12,0 -25,-2 -38,-5 -13,-3 -25,-7 -38,-13 -12,-6 -23,-14 -33,-24 -10,-10 -17,-22 -23,-37 -6,-15 -9,-32 -9,-52l0 -77c0,-19 4,-37 11,-53 7,-17 17,-31 29,-44 13,-13 27,-22 44,-30 17,-7 35,-11 54,-11 19,0 37,4 53,11 17,7 31,17 44,30 13,13 22,27 30,44 7,17 11,35 11,53 0,21 0,39 0,52 0,13 0,24 0,33 0,8 0,15 0,20 0,5 0,9 -1,13l54 0 0 89zm-239 -204l0 66c0,8 1,15 4,21 3,6 6,12 11,16 5,4 10,8 16,10 6,2 12,4 18,4l49 0 0 -117c0,-9 -1,-17 -4,-24 -3,-6 -6,-12 -11,-16 -5,-4 -10,-7 -16,-9 -6,-2 -12,-3 -18,-2 -6,0 -12,2 -18,4 -6,2 -11,6 -16,10 -5,5 -8,10 -11,16 -3,6 -4,13 -4,21z"/>
   <path id="9" class="fil0" d="M9282 2479c8,0 16,-1 23,-2 7,-2 13,-4 18,-8 5,-4 9,-9 12,-16 3,-6 4,-14 4,-24l0 -68c0,-19 4,-37 11,-53 7,-17 17,-31 29,-44 13,-13 27,-22 44,-30 17,-7 35,-11 54,-11 19,0 37,4 53,11 17,7 31,17 44,30 13,13 23,27 30,44 7,17 11,35 11,53l0 69c0,19 -4,37 -11,54 -7,17 -17,31 -30,44 -12,13 -27,22 -44,30 -17,7 -35,11 -53,11 -18,0 -35,-3 -51,-10 -16,-7 -30,-16 -43,-27 -15,14 -31,24 -47,29 -16,5 -35,8 -55,8l0 -89zm147 -116l0 66c0,8 1,15 4,21 3,6 6,12 11,16 5,4 10,8 16,10 6,2 12,4 18,4 6,0 12,-1 18,-2 6,-2 11,-5 16,-9 5,-4 8,-10 11,-16 3,-7 4,-14 4,-24l0 -66c0,-9 -1,-17 -4,-24 -3,-6 -6,-12 -11,-16 -5,-4 -10,-7 -16,-9 -6,-2 -12,-3 -18,-2 -6,0 -12,2 -18,4 -6,2 -11,6 -16,10 -5,5 -8,10 -11,16 -3,6 -4,13 -4,21z"/>
  </g>
 </g>
</svg>
